<?xml version="1.0" standalone="no"?>
<!DOCTYPE svg PUBLIC "-//W3C//DTD SVG 20010904//EN"
 "http://www.w3.org/TR/2001/REC-SVG-20010904/DTD/svg10.dtd">
<svg version="1.0" xmlns="http://www.w3.org/2000/svg"
 width="512.000000pt" height="512.000000pt" viewBox="0 0 512.000000 512.000000"
 preserveAspectRatio="xMidYMid meet">
<metadata>
Created by potrace 1.16, written by Peter Selinger 2001-2019
</metadata>
<g transform="translate(0.000000,512.000000) scale(0.100000,-0.100000)"
fill="#000000" stroke="none">
<path d="M2187 4418 c-32 -25 -37 -68 -37 -314 l0 -244 -790 0 c-755 0 -792
-1 -840 -19 -70 -27 -130 -78 -165 -142 l-30 -54 -3 -1359 -2 -1359 23 -51
c32 -69 75 -116 139 -152 l53 -29 2025 0 2025 0 53 29 c64 36 107 83 139 152
l23 51 -2 1359 -3 1359 -30 54 c-35 64 -95 115 -165 142 -48 18 -85 19 -840
19 l-790 0 0 238 c0 246 -7 305 -40 322 -29 16 -722 13 -743 -2z m611 -512
c-3 -340 -4 -356 -24 -382 -47 -64 -63 -69 -212 -69 -153 0 -182 9 -218 69
-18 29 -19 59 -22 384 l-3 352 241 0 241 0 -3 -354z m-645 -298 c9 -117 30
-173 91 -234 67 -66 118 -84 266 -91 234 -11 356 36 419 162 23 47 41 133 41
203 l0 42 779 0 778 0 33 -23 c19 -12 43 -38 54 -57 21 -35 21 -44 24 -1305 2
-865 -1 -1286 -8 -1321 -11 -51 -40 -88 -87 -113 -16 -8 -553 -11 -1986 -11
l-1964 0 -33 23 c-18 12 -43 35 -54 50 l-21 28 0 1307 c0 1300 0 1307 21 1342
11 19 35 45 54 57 l33 23 777 0 777 0 6 -82z"/>
<path d="M2498 3864 c-77 -41 -75 -169 2 -209 60 -31 137 -10 165 45 57 110
-58 223 -167 164z"/>
<path d="M841 2973 c-18 -9 -45 -34 -60 -57 l-26 -40 0 -810 0 -811 24 -38
c12 -21 41 -47 62 -58 38 -19 57 -19 733 -17 684 3 695 3 722 24 15 11 37 33
48 48 21 27 21 35 21 850 l0 823 -29 37 c-52 69 -22 66 -778 66 -614 0 -686
-2 -717 -17z m1359 -908 l0 -755 -640 0 -640 0 0 755 0 755 640 0 640 0 0
-755z"/>
<path d="M1452 2612 c-70 -25 -120 -67 -159 -132 -77 -126 -64 -272 32 -379
21 -23 36 -43 34 -44 -2 -1 -26 -13 -54 -27 -69 -34 -185 -151 -219 -221 -35
-72 -56 -151 -56 -212 0 -38 5 -53 25 -72 l24 -25 484 0 484 0 23 25 c19 20
23 34 21 77 -5 165 -117 346 -261 422 -30 16 -56 30 -58 31 -2 2 15 27 38 56
124 164 75 394 -105 487 -68 34 -178 41 -253 14z m179 -174 c41 -23 79 -84 79
-126 0 -65 -62 -134 -130 -147 -47 -8 -118 28 -144 73 -38 67 -15 153 54 199
42 29 91 29 141 1z m44 -534 c89 -27 195 -123 224 -206 l10 -28 -345 0 c-281
0 -344 2 -344 13 0 25 76 131 113 160 103 78 215 98 342 61z"/>
<path d="M2880 2850 c-45 -45 -33 -112 25 -136 31 -12 126 -14 650 -12 l614 3
23 23 c32 31 31 97 -1 123 -22 18 -50 19 -657 19 -618 0 -635 -1 -654 -20z"/>
<path d="M2902 2395 c-55 -24 -66 -91 -22 -135 19 -19 36 -20 654 -20 607 0
635 1 657 19 32 26 33 92 1 123 l-23 23 -617 2 c-517 2 -622 0 -650 -12z"/>
<path d="M2900 1927 c-52 -26 -62 -95 -20 -137 20 -20 36 -20 655 -20 619 0
635 0 655 20 42 42 32 111 -20 137 -36 18 -1234 18 -1270 0z"/>
<path d="M2900 1457 c-52 -26 -62 -95 -20 -137 20 -20 36 -20 655 -20 619 0
635 0 655 20 42 42 32 111 -20 137 -36 18 -1234 18 -1270 0z"/>
</g>
</svg>
