<?xml version="1.0" standalone="no"?>
<!DOCTYPE svg PUBLIC "-//W3C//DTD SVG 20010904//EN"
 "http://www.w3.org/TR/2001/REC-SVG-20010904/DTD/svg10.dtd">
<svg version="1.0" xmlns="http://www.w3.org/2000/svg"
 width="128.000000pt" height="128.000000pt" viewBox="0 0 128.000000 128.000000"
 preserveAspectRatio="xMidYMid meet">
<metadata>
Created by potrace 1.16, written by Peter Selinger 2001-2019
</metadata>
<g transform="translate(0.000000,128.000000) scale(0.100000,-0.100000)"
fill="#000000" stroke="none">
<path d="M536 1094 c-3 -9 -6 -40 -6 -70 l0 -54 -199 0 c-185 0 -200 -1 -225
-21 l-26 -20 0 -358 0 -358 23 -21 23 -22 515 0 516 0 21 23 c22 23 22 28 22
379 l0 357 -26 20 c-25 20 -40 21 -225 21 l-199 0 0 54 c0 87 2 86 -110 86
-80 0 -99 -3 -104 -16z m164 -110 c0 -97 -9 -114 -60 -114 -51 0 -60 17 -60
114 l0 76 60 0 60 0 0 -76z m-161 -104 c14 -48 34 -60 101 -60 67 0 87 12 100
60 l11 40 187 0 c103 0 194 -5 202 -10 13 -8 15 -58 18 -330 2 -214 -1 -326
-8 -340 -10 -20 -20 -20 -510 -20 -490 0 -500 0 -510 20 -7 14 -10 126 -8 340
3 272 5 322 18 330 8 5 99 10 201 10 l186 0 12 -40z"/>
<path d="M190 724 c-6 -14 -10 -110 -10 -212 0 -154 3 -192 16 -210 15 -21 21
-22 194 -22 149 0 181 3 194 16 14 13 16 47 16 215 0 119 -4 208 -10 220 -10
18 -23 19 -201 19 l-189 0 -10 -26z m360 -209 l0 -185 -160 0 -160 0 0 185 0
185 160 0 160 0 0 -185z"/>
<path d="M336 639 c-20 -15 -26 -29 -26 -57 0 -20 4 -43 9 -51 6 -10 1 -21
-19 -38 -31 -25 -55 -84 -46 -108 8 -22 264 -22 272 0 9 24 -15 83 -46 108
-20 17 -25 28 -19 38 5 8 9 30 9 50 0 69 -77 103 -134 58z"/>
<path d="M712 698 c3 -23 4 -23 173 -23 163 0 170 1 170 20 0 19 -8 20 -173
23 l-173 2 3 -22z"/>
<path d="M717 484 c-4 -4 -7 -16 -7 -26 0 -17 10 -18 173 -16 164 3 172 4 172
23 0 19 -8 20 -166 23 -91 1 -168 -1 -172 -4z"/>
<path d="M713 355 c-11 -31 13 -36 178 -33 156 3 164 4 164 23 0 19 -8 20
-168 23 -146 2 -168 0 -174 -13z"/>
</g>
</svg>
