<?xml version="1.0" standalone="no"?>
<!DOCTYPE svg PUBLIC "-//W3C//DTD SVG 20010904//EN"
 "http://www.w3.org/TR/2001/REC-SVG-20010904/DTD/svg10.dtd">
<svg version="1.0" xmlns="http://www.w3.org/2000/svg"
 width="128.000000pt" height="128.000000pt" viewBox="0 0 128.000000 128.000000"
 preserveAspectRatio="xMidYMid meet">
<metadata>
Created by potrace 1.16, written by Peter Selinger 2001-2019
</metadata>
<g transform="translate(0.000000,128.000000) scale(0.100000,-0.100000)"
fill="#000000" stroke="none">
<path d="M412 1261 c-151 -56 -248 -188 -259 -352 -6 -78 -6 -79 -34 -79 -18
0 -35 -9 -49 -27 -18 -24 -20 -38 -18 -127 3 -100 3 -101 28 -101 25 0 25 2
30 95 l5 95 429 3 c337 2 431 0 438 -10 4 -7 8 -72 8 -145 l0 -131 -85 -47
c-47 -25 -90 -55 -95 -66 -14 -24 -4 -96 21 -164 11 -27 19 -51 19 -53 0 -1
-165 -1 -367 0 l-368 3 -3 117 c-3 121 -11 145 -46 132 -16 -6 -17 -22 -14
-141 3 -128 4 -136 27 -154 22 -18 44 -19 418 -19 l394 0 26 -30 c30 -37 73
-60 108 -60 41 0 119 81 161 166 37 74 56 184 36 211 -4 7 -44 32 -88 56 l-79
42 -5 150 c-6 177 -17 205 -79 205 -14 0 -19 16 -28 90 -19 152 -101 267 -231
328 -77 36 -220 42 -300 13z m250 -57 c89 -35 173 -119 203 -204 8 -23 18 -70
21 -106 l7 -64 -30 0 c-30 0 -30 1 -37 66 -9 84 -24 121 -73 174 -54 61 -121
90 -209 90 -153 0 -260 -103 -272 -262 -5 -68 -5 -68 -35 -68 l-30 0 5 68 c3
44 14 89 30 124 27 58 94 141 108 133 4 -3 10 1 13 9 3 8 30 23 59 35 67 25
180 28 240 5z m9 -139 c53 -37 88 -103 96 -178 l6 -57 -222 0 -221 0 0 41 c0
89 45 170 118 209 29 16 52 20 109 17 61 -2 78 -7 114 -32z m427 -682 l74 -38
-6 -47 c-2 -25 -18 -73 -34 -105 -28 -55 -93 -133 -111 -133 -16 0 -62 42 -89
83 -31 44 -57 111 -66 164 -5 32 -3 34 67 73 40 22 76 40 81 40 6 0 43 -17 84
-37z"/>
<path d="M314 681 c-11 -5 -33 -23 -47 -41 -34 -40 -38 -114 -7 -152 l19 -25
-28 -21 c-34 -25 -71 -97 -71 -138 0 -19 9 -39 23 -52 22 -21 33 -22 169 -22
l147 0 21 27 c17 22 20 36 15 68 -7 47 -37 97 -70 119 l-25 17 21 29 c18 23
21 38 17 80 -7 72 -46 111 -115 116 -26 2 -57 0 -69 -5z m103 -73 c46 -43 16
-118 -47 -118 -61 0 -93 77 -50 120 26 26 68 25 97 -2z m27 -211 c26 -18 56
-70 56 -97 0 -6 -47 -10 -130 -10 -83 0 -130 4 -130 10 0 27 30 79 56 97 51
37 95 37 148 0z"/>
<path d="M592 611 c-8 -4 -12 -17 -10 -27 3 -17 14 -19 138 -19 l135 0 0 25 0
25 -125 3 c-69 1 -131 -2 -138 -7z"/>
</g>
</svg>
